<svg width="30" height="31" viewBox="0 0 30 31" fill="none" xmlns="http://www.w3.org/2000/svg">
<path d="M24.1475 17.6211H19.3038C18.6617 17.6204 18.0456 17.8744 17.5905 18.3274C17.1354 18.7803 16.8786 19.3953 16.8763 20.0373V24.8811C16.8759 25.2 16.9385 25.5158 17.0604 25.8105C17.1822 26.1051 17.361 26.3729 17.5865 26.5983C17.812 26.8238 18.0797 27.0026 18.3744 27.1245C18.6691 27.2464 18.9849 27.3089 19.3038 27.3086H24.1475C24.7894 27.3059 25.404 27.0489 25.8567 26.5939C26.3093 26.1389 26.5632 25.523 26.5625 24.8811V20.0373C26.5628 19.7201 26.5006 19.4059 26.3793 19.1128C26.2581 18.8196 26.0802 18.5533 25.8559 18.3289C25.6316 18.1046 25.3652 17.9268 25.0721 17.8055C24.7789 17.6843 24.4647 17.622 24.1475 17.6223M10.6963 17.6211H5.8525C5.21074 17.6247 4.59651 17.8822 4.144 18.3373C3.69149 18.7924 3.43749 19.4081 3.4375 20.0498V24.8936C3.43717 25.2108 3.49941 25.525 3.62066 25.8182C3.74191 26.1113 3.91979 26.3777 4.1441 26.602C4.36842 26.8263 4.63478 27.0042 4.92793 27.1254C5.22108 27.2467 5.53527 27.3089 5.8525 27.3086H10.6963C11.3381 27.3093 11.954 27.0554 12.4091 26.6028C12.8641 26.1501 13.1211 25.5354 13.1238 24.8936V20.0498C13.1241 19.731 13.0615 19.4152 12.9396 19.1205C12.8178 18.8258 12.639 18.5581 12.4135 18.3326C12.188 18.1071 11.9203 17.9283 11.6256 17.8065C11.3309 17.6846 11.0151 17.622 10.6963 17.6223M10.6963 4.1836H5.8525C5.53527 4.18327 5.22108 4.24551 4.92793 4.36676C4.63478 4.488 4.36842 4.66588 4.1441 4.8902C3.91979 5.11452 3.74191 5.38088 3.62066 5.67403C3.49941 5.96718 3.43717 6.28136 3.4375 6.5986V11.4423C3.43683 12.0842 3.69066 12.7001 4.14335 13.1552C4.59603 13.6102 5.21065 13.8672 5.8525 13.8698H10.6963C11.0151 13.8702 11.3309 13.8076 11.6256 13.6857C11.9203 13.5639 12.188 13.3851 12.4135 13.1596C12.639 12.9341 12.8178 12.6664 12.9396 12.3717C13.0615 12.077 13.1241 11.7612 13.1238 11.4423V6.5986C13.1211 5.95675 12.8641 5.34213 12.4091 4.88944C11.954 4.43675 11.3381 4.18293 10.6963 4.1836ZM24.1475 4.1836H19.3038C18.6619 4.18293 18.046 4.43675 17.5909 4.88944C17.1359 5.34213 16.8789 5.95675 16.8763 6.5986V11.4423C16.8766 12.0861 17.1324 12.7033 17.5876 13.1585C18.0428 13.6137 18.66 13.8695 19.3038 13.8698H24.1475C24.7894 13.8672 25.404 13.6102 25.8567 13.1552C26.3093 12.7001 26.5632 12.0842 26.5625 11.4423V6.5986C26.5628 6.28136 26.5006 5.96718 26.3793 5.67403C26.2581 5.38088 26.0802 5.11452 25.8559 4.8902C25.6316 4.66588 25.3652 4.488 25.0721 4.36676C24.7789 4.24551 24.4647 4.18327 24.1475 4.1836Z" stroke="white" stroke-width="1.5" stroke-linecap="round" stroke-linejoin="round"/>
</svg>
