<svg width="31" height="30" viewBox="0 0 31 30" fill="none" xmlns="http://www.w3.org/2000/svg">
<path d="M4.95313 12.6562C4.95312 13.7335 5.16531 14.8002 5.57755 15.7955C5.9898 16.7907 6.59403 17.695 7.35576 18.4567C8.1175 19.2185 9.0218 19.8227 10.017 20.2349C11.0123 20.6472 12.079 20.8594 13.1562 20.8594C14.2335 20.8594 15.3002 20.6472 16.2955 20.2349C17.2907 19.8227 18.195 19.2185 18.9567 18.4567C19.7185 17.695 20.3227 16.7907 20.7349 15.7955C21.1472 14.8002 21.3594 13.7335 21.3594 12.6562C21.3594 11.579 21.1472 10.5123 20.7349 9.51705C20.3227 8.5218 19.7185 7.6175 18.9567 6.85576C18.195 6.09403 17.2907 5.4898 16.2955 5.07755C15.3002 4.6653 14.2335 4.45313 13.1562 4.45312C12.079 4.45313 11.0123 4.6653 10.017 5.07755C9.0218 5.4898 8.1175 6.09403 7.35576 6.85576C6.59403 7.6175 5.9898 8.5218 5.57755 9.51705C5.16531 10.5123 4.95312 11.579 4.95313 12.6562Z" stroke="#4E6D03" stroke-width="2" stroke-linecap="round" stroke-linejoin="round"/>
<path d="M26.0469 25.5469L19.0156 18.5156" stroke="#4E6D03" stroke-width="2" stroke-linecap="round" stroke-linejoin="round"/>
</svg>
