<svg width="30" height="31" viewBox="0 0 30 31" fill="none" xmlns="http://www.w3.org/2000/svg">
<path d="M15.0003 10.9234C14.3671 10.9234 13.7402 11.0481 13.1552 11.2904C12.5703 11.5327 12.0388 11.8879 11.591 12.3356C11.1433 12.7833 10.7882 13.3148 10.5459 13.8998C10.3036 14.4847 10.1789 15.1117 10.1789 15.7448C10.1789 16.378 10.3036 17.005 10.5459 17.5899C10.7882 18.1749 11.1433 18.7064 11.591 19.1541C12.0388 19.6018 12.5703 19.957 13.1552 20.1993C13.7402 20.4416 14.3671 20.5663 15.0003 20.5663C16.279 20.5663 17.5054 20.0583 18.4096 19.1541C19.3138 18.2499 19.8217 17.0236 19.8217 15.7448C19.8217 14.4661 19.3138 13.2398 18.4096 12.3356C17.5054 11.4314 16.279 10.9234 15.0003 10.9234ZM11.786 15.7448C11.786 15.3227 11.8692 14.9048 12.0307 14.5148C12.1922 14.1248 12.429 13.7705 12.7275 13.472C13.0259 13.1735 13.3803 12.9368 13.7703 12.7752C14.1602 12.6137 14.5782 12.5306 15.0003 12.5306C15.4224 12.5306 15.8404 12.6137 16.2304 12.7752C16.6203 12.9368 16.9747 13.1735 17.2732 13.472C17.5716 13.7705 17.8084 14.1248 17.9699 14.5148C18.1315 14.9048 18.2146 15.3227 18.2146 15.7448C18.2146 16.5973 17.8759 17.4149 17.2732 18.0177C16.6704 18.6205 15.8528 18.9591 15.0003 18.9591C14.1478 18.9591 13.3303 18.6205 12.7275 18.0177C12.1247 17.4149 11.786 16.5973 11.786 15.7448ZM23.261 24.7395L21.4096 23.9263C21.1461 23.8118 20.8595 23.7605 20.5726 23.7765C20.2857 23.7925 20.0066 23.8753 19.7575 24.0184C19.2571 24.3077 18.9378 24.8188 18.8746 25.3941L18.6517 27.4084C18.6297 27.611 18.5455 27.8018 18.4106 27.9545C18.2757 28.1072 18.0968 28.2144 17.8985 28.2613C15.9922 28.7144 14.0062 28.7144 12.0999 28.2613C11.9018 28.2142 11.7232 28.1069 11.5885 27.9542C11.4538 27.8015 11.3697 27.6108 11.3478 27.4084L11.1249 25.3973C11.093 25.1143 10.9952 24.8427 10.8392 24.6043C10.6833 24.3659 10.4736 24.1675 10.2271 24.0248C9.98067 23.8829 9.70445 23.8007 9.42053 23.7847C9.13662 23.7687 8.8529 23.8194 8.59209 23.9327L6.74066 24.7459C6.5535 24.8281 6.34541 24.8501 6.1452 24.8089C5.94498 24.7676 5.76255 24.6651 5.62316 24.5156C4.29167 23.0867 3.3002 21.3756 2.72281 19.5098C2.66157 19.3137 2.66315 19.1034 2.72731 18.9082C2.79147 18.713 2.91501 18.5428 3.08066 18.4213L4.71674 17.2127C4.94706 17.0435 5.13433 16.8224 5.26341 16.5674C5.39248 16.3124 5.45974 16.0306 5.45974 15.7448C5.45974 15.459 5.39248 15.1772 5.26341 14.9222C5.13433 14.6672 4.94706 14.4462 4.71674 14.277L3.08066 13.0716C2.9148 12.95 2.79112 12.7796 2.72695 12.5842C2.66278 12.3888 2.66133 12.1782 2.72281 11.982C3.3002 10.1174 4.29254 8.40778 5.62531 6.98162C5.76482 6.83227 5.94731 6.72997 6.14752 6.6889C6.34773 6.64782 6.55575 6.66999 6.74281 6.75234L8.58566 7.56341C8.84788 7.67626 9.13287 7.72617 9.41783 7.70914C9.70279 7.6921 9.97981 7.6086 10.2267 7.46531C10.4736 7.32202 10.6835 7.12292 10.8397 6.88396C10.9959 6.64499 11.0939 6.37278 11.126 6.08912L11.351 4.07698C11.3732 3.87212 11.459 3.67936 11.5965 3.52581C11.7339 3.37226 11.9159 3.26563 12.1171 3.22091C13.0599 3.01091 14.0257 2.89984 15.0142 2.8877C15.9807 2.89841 16.9428 3.01091 17.8857 3.22091C18.087 3.26569 18.2692 3.37248 18.4066 3.52624C18.544 3.68001 18.6298 3.873 18.6517 4.07805L18.8757 6.09019C18.9237 6.53651 19.1349 6.94937 19.4687 7.24953C19.8025 7.5497 20.2353 7.71603 20.6842 7.71662C20.9339 7.71662 21.1814 7.66412 21.4128 7.56234L23.2557 6.75127C23.4427 6.66892 23.6507 6.64675 23.851 6.68783C24.0512 6.7289 24.2336 6.8312 24.3732 6.98055C25.7055 8.40682 26.6975 10.1164 27.2746 11.9809C27.3359 12.1769 27.3345 12.3872 27.2706 12.5823C27.2066 12.7775 27.0833 12.9478 26.9178 13.0695L25.2839 14.277C24.8178 14.6198 24.536 15.1652 24.536 15.7448C24.536 16.3234 24.8178 16.8688 25.285 17.2127L26.9199 18.4191C27.2585 18.6698 27.4021 19.107 27.2778 19.5088C26.6997 21.3726 25.7083 23.0819 24.3775 24.5091C24.2381 24.6587 24.0556 24.7612 23.8554 24.8024C23.6552 24.8437 23.4482 24.8217 23.261 24.7395ZM17.4239 24.5273C17.6794 23.7266 18.2236 23.0494 18.9507 22.6277C19.4183 22.3582 19.9427 22.2023 20.4816 22.1723C21.0205 22.1423 21.5589 22.2392 22.0535 22.4552L23.4935 23.0873C24.4178 22.0159 25.1336 20.7811 25.6042 19.4466L24.3303 18.507C23.8962 18.189 23.543 17.7721 23.2993 17.2923C23.0557 16.8124 22.9284 16.2819 22.9278 15.7438C22.9278 14.6434 23.4603 13.6223 24.3282 12.9838L24.3303 12.9827L25.6021 12.0431C25.131 10.7089 24.4148 9.47449 23.4903 8.40341L22.0621 9.03127L22.0599 9.03234C21.625 9.2252 21.1567 9.32377 20.6821 9.32377C19.8379 9.32297 19.0237 9.01075 18.3954 8.4469C17.7671 7.88306 17.3689 7.10724 17.2771 6.26805V6.26591L17.1024 4.70162C16.4132 4.57338 15.7142 4.5042 15.0132 4.49484C14.2917 4.50484 13.5864 4.57377 12.8971 4.70162L12.7224 6.26698C12.6623 6.80102 12.4778 7.31351 12.1837 7.76328C11.8895 8.21305 11.494 8.58755 11.0288 8.8567C10.5637 9.12585 10.0419 9.28214 9.50536 9.31302C8.96883 9.34389 8.43255 9.24849 7.93959 9.03448L6.50816 8.40448C5.58367 9.47556 4.86745 10.71 4.39638 12.0441L5.67138 12.9838C6.10438 13.3024 6.4564 13.7183 6.69902 14.198C6.94164 14.6777 7.06805 15.2078 7.06805 15.7454C7.06805 16.283 6.94164 16.813 6.69902 17.2927C6.4564 17.7724 6.10438 18.1884 5.67138 18.507L4.39638 19.4477C4.8664 20.7841 5.58229 22.0207 6.50709 23.0938L7.94816 22.4616C8.43973 22.247 8.9748 22.1507 9.51034 22.1805C10.0459 22.2103 10.567 22.3653 11.0317 22.6331C11.4961 22.9013 11.8911 23.2748 12.1849 23.7234C12.4787 24.1721 12.6632 24.6834 12.7235 25.2163V25.2216L12.8971 26.7902C14.2867 27.0634 15.7149 27.0634 17.1046 26.7902L17.2782 25.2184C17.3039 24.9813 17.3532 24.7509 17.426 24.5273" fill="white"/>
</svg>
